HIERARCHY
ROOT Hips
{
	OFFSET 0.00000 0.00000 0.00000
	CHANNELS 6 Xposition Yposition Zposition Zrotation Yrotation Xrotation 
	JOINT LHipJoint
	{
		OFFSET 0 0 0
		CHANNELS 3 Zrotation Yrotation Xrotation
		JOINT LeftHip
		{
			OFFSET 1.75344 -1.53157 0.77399
			CHANNELS 3 Zrotation Yrotation Xrotation
			JOINT LeftKnee
			{
				OFFSET 2.25415 -6.19323 0.00000
				CHANNELS 3 Zrotation Yrotation Xrotation
				JOINT LeftAnkle
				{
					OFFSET 2.30342 -6.32861 0.00000
					CHANNELS 3 Zrotation Yrotation Xrotation
					JOINT LeftToe
					{
						OFFSET 0.10958 -0.30108 1.49206
						CHANNELS 3 Zrotation Yrotation Xrotation
						End Site
						{
							OFFSET 0.00000 -0.00000 0.77783
						}
					}
				}
			}
		}
	}
	JOINT RHipJoint
	{
		OFFSET 0 0 0
		CHANNELS 3 Zrotation Yrotation Xrotation
		JOINT RightHip
		{
			OFFSET -1.81912 -1.53156 0.77399
			CHANNELS 3 Zrotation Yrotation Xrotation
			JOINT RightKnee
			{
				OFFSET -2.22882 -6.12365 0.00000
				CHANNELS 3 Zrotation Yrotation Xrotation
				JOINT RightAnkle
				{
					OFFSET -2.21943 -6.09785 0.00000
					CHANNELS 3 Zrotation Yrotation Xrotation
					JOINT RightToe
					{
						OFFSET -0.18931 -0.52012 1.59379
						CHANNELS 3 Zrotation Yrotation Xrotation
						End Site
						{
							OFFSET -0.00000 -0.00000 0.84686
						}
					}
				}
			}
		}
	}
	JOINT lowerback
	{
		OFFSET 0 0 0
		CHANNELS 3 Zrotation Yrotation Xrotation
		JOINT Chest
		{
			OFFSET -0.00200 1.66634 -0.14248
			CHANNELS 3 Zrotation Yrotation Xrotation
			JOINT Chest2
			{
				OFFSET -0.00875 1.64542 0.09514
				CHANNELS 3 Zrotation Yrotation Xrotation
				JOINT lowerneck
				{
					OFFSET 0 0 0
					CHANNELS 3 Zrotation Yrotation Xrotation
					JOINT Neck
					{
						OFFSET 0.02257 1.59605 0.00839
						CHANNELS 3 Zrotation Yrotation Xrotation
						JOINT Head
						{
							OFFSET -0.10214 1.57530 -0.23335
							CHANNELS 3 Zrotation Yrotation Xrotation
							End Site
							{
								OFFSET -0.03588 1.60717 -0.08062
							}
						}
					}
				}
				JOINT LeftCollar
				{
					OFFSET 0 0 0
					CHANNELS 3 Zrotation Yrotation Xrotation
					JOINT LeftShoulder
					{
						OFFSET 2.54983 1.10186 0.40078
CHANNELS 3 Zrotation Xrotation Yrotation
						JOINT LeftElbow
						{
OFFSET 0 -4.288400 0.000000
CHANNELS 3 Zrotation Xrotation Yrotation
							JOINT LeftWrist
							{
OFFSET 0 -3.065520 -0.000000
CHANNELS 3 Zrotation Xrotation Yrotation
								JOINT lhand
								{
									OFFSET 0 0 0
CHANNELS 3 Zrotation Xrotation Yrotation
									JOINT LFingers
									{
OFFSET 0 -0.753040 0.000000
CHANNELS 3 Zrotation Xrotation Yrotation
										End Site
										{
OFFSET 0 -0.607120 0.000000
										}
									}
								}
								JOINT LThumb
								{
OFFSET 0 0.000000 0.000000
CHANNELS 3 Zrotation Xrotation Yrotation
									End Site
									{
OFFSET 0 -0.616390 0.616390
									}
								}
							}
						}
					}
				}
				JOINT RightCollar
				{
					OFFSET 0 0 0
					CHANNELS 3 Zrotation Yrotation Xrotation
					JOINT RightShoulder
					{
						OFFSET -2.60909 1.35448 0.21802
CHANNELS 3 Zrotation Xrotation Yrotation
						JOINT RightElbow
						{
OFFSET 0 -4.521720 -0.000000
CHANNELS 3 Zrotation Xrotation Yrotation
							JOINT RightWrist
							{
OFFSET 0 -2.891400 0.000000
CHANNELS 3 Zrotation Xrotation Yrotation
								JOINT rhand
								{
									OFFSET 0 0 0
CHANNELS 3 Zrotation Xrotation Yrotation
									JOINT RFingers
									{
OFFSET 0 -0.680540 0.000000
CHANNELS 3 Zrotation Xrotation Yrotation
										End Site
										{
OFFSET 0 -0.548670 0.000000
										}
									}
								}
								JOINT RThumb
								{
OFFSET 0 0.000000 0.000000
CHANNELS 3 Zrotation Xrotation Yrotation
									End Site
									{
OFFSET 0 -0.557050 0.557050
									}
								}
							}
						}
					}
				}
			}
		}
	}
}
MOTION
Frames: 10
Frame Time: 0.008333333333333333
8.401500 15.228500 42.351400 -177.601000 -0.294800 178.525000 0.000000 0.000000 0.000000 -22.267400 -22.548000 -0.973200 2.450400 9.747100 28.161600 1.353200 11.408100 -28.752600 2.122400 -9.116500 -26.160400 0.000000 0.000000 0.000000 24.989700 15.912600 1.215500 -1.477200 -7.679800 21.745600 -0.208200 -17.270000 -26.248200 -0.078000 1.802100 -4.959000 2.021700 0.105100 7.452100 0.963200 0.375500 -1.869800 -0.177600 0.120600 -6.131700 -4.755800 0.079800 -6.720800 3.174000 -3.437500 31.241400 1.357100 -2.993000 11.334600 -0.000000 -0.000000 0.000000 2.516500 11.435500 -33.282300 22.292100 -33.305600 6.745500 5.494800 11.065100 34.548600 0.000000 0.000000 0.000000 -7.125000 0.000000 0.000000 -14.881600 -3.674100 -16.351500 -0.000000 -0.000000 0.000000 -7.002200 10.690500 47.841600 -16.625000 -26.360700 -3.919400 -14.143600 27.341400 50.056800 0.000000 0.000000 0.000000 7.125000 0.000000 -0.000000 54.815000 75.414800 -41.785600
8.390978 15.222961 42.375103 -179.431072 -0.150874 177.633112 0.000000 0.000000 0.000000 -24.714356 -22.043455 0.996121 2.120021 9.111394 26.144672 1.313124 11.343384 -28.423950 1.611974 -8.006217 -22.733074 0.000000 0.000000 0.000000 23.178987 16.112293 1.061706 -1.782184 -8.396618 23.925432 -0.429545 -16.685895 -27.272462 -0.109379 2.132290 -5.871397 0.367702 0.370551 8.803306 0.234339 0.549298 -1.750949 -0.040862 0.259254 -6.781817 -4.658368 0.252170 -7.028368 3.084494 -3.549163 32.686917 1.264735 -3.155812 11.978384 0.000000 0.000000 0.000000 3.108472 11.384183 -33.742751 22.277122 -33.288787 6.737275 6.245253 10.386739 35.295013 0.000000 0.000000 0.000000 -7.125000 0.000000 0.000000 -14.521867 -4.482190 -16.121600 0.000000 0.000000 0.000000 -6.739619 10.757068 47.539466 -16.793330 -26.584542 -3.994450 -11.701520 26.560029 50.263233 0.000000 0.000000 0.000000 7.125000 0.000000 0.000000 57.247712 74.574059 -43.018893
8.379574 15.224034 42.380982 -179.798853 -0.087113 177.447821 0.000000 0.000000 0.000000 -25.198327 -21.680428 1.433147 2.011744 8.890492 25.453385 1.197858 11.594520 -27.821034 2.135333 -9.142422 -26.241855 0.000000 0.000000 0.000000 22.756652 16.097769 0.900409 -1.882405 -8.616745 24.603541 -0.512312 -16.555982 -27.746926 -0.090350 1.938670 -5.336145 0.091259 0.440642 8.921278 0.024628 0.599367 -1.623882 -0.112885 0.290566 -6.714949 -4.602895 0.446692 -7.185312 3.064362 -3.496389 33.514164 1.236095 -3.196718 12.347746 0.000000 0.000000 0.000000 3.284967 11.284208 -33.843227 22.410034 -33.437157 6.810562 6.654252 10.005764 35.227337 0.000000 0.000000 0.000000 -7.125000 0.000000 0.000000 -14.299433 -4.468152 -15.854992 0.000000 0.000000 0.000000 -6.640138 10.623769 48.384653 -16.674883 -26.427137 -3.941528 -14.075107 29.306048 51.513008 0.000000 0.000000 0.000000 7.125000 0.000000 0.000000 60.131565 76.020850 -47.012694
8.364855 15.227868 42.397866 -180.015387 1.512386 177.819791 0.000000 0.000000 0.000000 -25.344670 -21.304386 1.034718 1.985889 8.836546 25.285388 1.166727 12.399032 -28.293283 1.927437 -8.709847 -24.894091 0.000000 0.000000 0.000000 22.199401 16.802667 0.029778 -1.942919 -8.746178 25.004397 -0.500271 -15.774411 -26.754905 -0.173284 2.679673 -7.388379 -0.325489 0.921025 8.900685 0.076058 1.197923 -1.785051 0.086719 0.601964 -6.882977 -4.718069 0.703555 -7.257653 2.945209 -3.196399 34.011083 1.237199 -3.138352 12.555228 0.000000 0.000000 0.000000 3.057096 11.499411 -33.635852 22.640766 -33.693589 6.937981 5.740825 10.467091 34.272161 0.000000 0.000000 0.000000 -7.125000 0.000000 0.000000 -14.734674 -3.436201 -16.120659 0.000000 0.000000 0.000000 -6.838433 10.512815 48.950860 -16.577904 -26.297972 -3.898515 -14.239885 29.917050 51.681136 0.000000 0.000000 0.000000 7.125000 0.000000 0.000000 60.671580 76.150509 -47.623563
8.354219 15.221856 42.399125 -179.920768 1.284186 177.814369 0.000000 0.000000 0.000000 -25.307455 -21.468776 1.007962 2.013183 8.893504 25.462684 1.180526 12.242629 -28.254601 1.685066 -8.168330 -23.231327 0.000000 0.000000 0.000000 22.270600 16.712438 0.087852 -1.927192 -8.712745 24.900654 -0.467092 -16.024860 -26.786798 -0.175181 2.694509 -7.429527 -0.283718 0.866748 8.829513 0.112580 1.133337 -1.618837 0.113873 0.569700 -6.665385 -4.515175 0.782669 -7.769681 2.695714 -3.033218 34.368075 1.117784 -3.068509 12.801390 0.000000 0.000000 0.000000 3.074517 11.251136 -33.724964 22.618361 -33.668772 6.925537 4.998363 10.582561 33.484743 0.000000 0.000000 0.000000 -7.125000 0.000000 0.000000 -15.100278 -2.598338 -16.336118 0.000000 0.000000 0.000000 -6.991820 10.210399 49.385190 -16.489272 -26.179595 -3.859298 -14.597632 29.922843 51.033113 0.000000 0.000000 0.000000 7.125000 0.000000 0.000000 58.014507 76.030771 -45.162496
8.345948 15.223495 42.396216 -179.906482 1.149352 177.752531 0.000000 0.000000 0.000000 -25.421896 -21.676103 1.229924 2.014116 8.895363 25.468561 1.308451 11.856216 -28.814021 1.268549 -7.138197 -20.125624 0.000000 0.000000 0.000000 22.286233 16.635518 0.217051 -1.931284 -8.721537 24.928001 -0.480360 -16.011993 -26.874356 -0.151590 2.508554 -6.913388 -0.286673 0.838236 8.990491 0.052271 1.090536 -1.621924 0.055958 0.547397 -6.759401 -4.082363 0.897321 -7.552510 2.468591 -2.867280 34.244559 0.978977 -2.965370 12.685584 0.000000 0.000000 0.000000 3.171083 11.548816 -33.730515 22.650461 -33.704307 6.943356 6.961897 9.649837 34.523016 0.000000 0.000000 0.000000 -7.125000 0.000000 0.000000 -14.089421 -3.825955 -15.460449 0.000000 0.000000 0.000000 -6.856412 10.179303 49.319385 -16.413455 -26.078019 -3.825890 -13.901581 29.776466 52.446262 0.000000 0.000000 0.000000 7.125000 0.000000 0.000000 63.816608 76.286760 -50.584353
8.340037 15.221062 42.394552 -179.707060 0.504547 177.689190 0.000000 0.000000 0.000000 -25.216318 -21.802654 1.175755 2.035816 8.940276 25.608810 1.253941 11.682462 -28.291744 1.403267 -7.493243 -21.185139 0.000000 0.000000 0.000000 22.623655 16.626786 0.518112 -1.920282 -8.697992 24.855102 -0.475068 -16.485486 -27.384315 -0.137905 2.392966 -6.593117 -0.128043 0.672590 9.273194 0.118767 0.891896 -1.648124 0.061805 0.445095 -6.946504 -3.297017 1.357308 -7.519168 2.419122 -2.119653 33.760432 0.930890 -2.480944 12.433849 0.000000 0.000000 0.000000 3.243666 11.805705 -34.037139 22.719275 -33.780360 6.981611 5.586950 10.055074 34.208525 0.000000 0.000000 0.000000 -7.125000 0.000000 0.000000 -14.814666 -3.357887 -16.194839 0.000000 0.000000 0.000000 -6.824257 10.536617 49.011781 -16.497720 -26.190854 -3.863091 -14.961535 30.163836 50.948236 0.000000 0.000000 0.000000 7.125000 0.000000 0.000000 57.469338 76.137446 -44.793996
8.324632 15.222751 42.397996 -179.715873 0.865159 177.829586 0.000000 0.000000 0.000000 -25.286958 -21.874402 1.092496 2.038976 8.946848 25.629133 1.256614 11.952968 -28.537925 1.395653 -7.473628 -21.126358 0.000000 0.000000 0.000000 22.535353 16.938868 0.376307 -1.919122 -8.695610 24.847725 -0.462439 -16.566818 -27.383221 -0.117843 2.212166 -6.092321 -0.090031 0.759225 9.429292 0.176646 1.016194 -1.698282 0.079848 0.505486 -7.090062 -1.880130 2.820590 -7.435595 2.860684 0.005121 32.835405 1.131572 -1.189518 11.958855 0.000000 0.000000 0.000000 3.113095 11.974493 -34.028723 22.578665 -33.624911 6.903573 6.522785 10.108645 33.586642 0.000000 0.000000 0.000000 -7.125000 0.000000 0.000000 -14.273758 -2.866102 -15.447299 0.000000 0.000000 0.000000 -6.940192 10.618166 49.022104 -16.626742 -26.363079 -3.920148 -15.293476 30.331870 51.211271 0.000000 0.000000 0.000000 7.125000 0.000000 0.000000 58.262579 76.378330 -45.730284
8.321898 15.223273 42.375119 -179.915347 -0.333786 177.827426 0.000000 0.000000 0.000000 -25.670595 -22.571908 1.612542 1.977546 8.819139 25.231146 1.160896 11.718921 -27.662526 1.239473 -7.059628 -19.892181 0.000000 0.000000 0.000000 22.494327 16.806885 0.665374 -1.946419 -8.753519 25.027223 -0.517587 -17.096393 -28.412140 -0.064961 1.641940 -4.517010 -0.158822 0.460548 9.384662 0.097943 0.601878 -1.720217 0.099959 0.302945 -7.086089 0.778229 5.129775 -6.800091 3.168205 3.247172 31.446996 1.166681 0.778002 11.244909 0.000000 0.000000 0.000000 3.311309 12.019994 -34.375450 22.413171 -33.440884 6.812131 5.044210 10.457690 33.886653 0.000000 0.000000 0.000000 -7.125000 0.000000 0.000000 -15.092412 -2.985771 -16.426606 0.000000 0.000000 0.000000 -6.577318 11.028461 48.204522 -16.642436 -26.383979 -3.927157 -15.760579 30.728742 51.154970 0.000000 0.000000 0.000000 7.125000 0.000000 0.000000 57.763674 76.539545 -45.454247
8.302391 15.235429 42.361330 -180.066322 -0.241510 178.401215 0.000000 0.000000 0.000000 -25.878504 -23.363936 1.468228 1.953768 8.769172 25.075827 1.175429 12.130497 -28.120881 1.096497 -6.652164 -18.689558 0.000000 0.000000 0.000000 22.047798 16.935372 0.135098 -1.923748 -8.705330 24.877793 -0.521684 -16.919601 -28.236805 -0.056270 1.529934 -4.208168 0.233758 0.613510 8.954424 0.007872 0.847069 -1.951151 -0.249660 0.405109 -7.078778 2.808044 8.036582 -6.098055 4.218047 7.184543 30.311928 1.615974 3.066379 10.672476 0.000000 0.000000 0.000000 3.476624 11.890694 -34.510471 22.267579 -33.278102 6.732120 4.749689 10.497141 34.743177 0.000000 0.000000 0.000000 -7.125000 0.000000 0.000000 -15.291501 -3.777588 -16.860975 0.000000 0.000000 0.000000 -6.504373 11.722658 47.664172 -16.787351 -26.576613 -3.991712 -15.838577 30.480237 51.295199 0.000000 0.000000 0.000000 7.125000 0.000000 0.000000 58.265600 76.628041 -45.984088
